PathFileType	4	(X/Y/Z)	 s01c0301.trc
DataRate	CameraRate	NumFrames	NumMarkers	Units	OrigDataRate	OrigDataStartFrame	OrigNumFrames
200	200	4	48	mm	200	751	2000
Frame#	Time	racr			lacr			c7			jug			rlel			rdr			llel			ldr			s2			lic			ric			lasi			rasi			rpsi			lpsi			rgt			lgt			rth1			rth2			rth3			rth4			rlfc			rsh1			rsh2			rsh3			rsh4			rlmal			rmmal			rcal			rtoe			rmt5			lth1			lth2			lth4			lth3			llfc			lsh1			lsh2			lsh3			lsh4			llmal			lmmal			lcal			ltoe			lmt5			SBIKE			LBIKE			RBIKE			
		X1	Y1	Z1	X2	Y2	Z2	X3	Y3	Z3	X4	Y4	Z4	X5	Y5	Z5	X6	Y6	Z6	X7	Y7	Z7	X8	Y8	Z8	X9	Y9	Z9	X10	Y10	Z10	X11	Y11	Z11	X12	Y12	Z12	X13	Y13	Z13	X14	Y14	Z14	X15	Y15	Z15	X16	Y16	Z16	X17	Y17	Z17	X18	Y18	Z18	X19	Y19	Z19	X20	Y20	Z20	X21	Y21	Z21	X22	Y22	Z22	X23	Y23	Z23	X24	Y24	Z24	X25	Y25	Z25	X26	Y26	Z26	X27	Y27	Z27	X28	Y28	Z28	X29	Y29	Z29	X30	Y30	Z30	X31	Y31	Z31	X32	Y32	Z32	X33	Y33	Z33	X34	Y34	Z34	X35	Y35	Z35	X36	Y36	Z36	X37	Y37	Z37	X38	Y38	Z38	X39	Y39	Z39	X40	Y40	Z40	X41	Y41	Z41	X42	Y42	Z42	X43	Y43	Z43	X44	Y44	Z44	X45	Y45	Z45	X46	Y46	Z46	X47	Y47	Z47	X48	Y48	Z48	
751	3.7550	718.519272	1364.202916	-78.639559	757.608228	1307.874106	-409.648655	715.689368	1415.618617	-248.534511	695.031022	1250.500400	-237.069445	617.812020	1091.628939	17.726401	731.163971	866.727711	-57.408688	651.325571	1069.992084	-552.725339	733.644850	859.856592	-443.006880	168.775286	1233.327877	-263.178253	336.432867	1234.046557	-439.672992	323.828335	1213.763745	-108.217254	331.366099	1177.917566	-415.421119	352.181289	1166.912754	-142.343606	203.138866	1268.071428	-211.160502	197.920481	1277.272914	-316.716764	270.544621	1103.328806	-87.314143	270.653549	1101.196495	-462.783371	334.571798	986.679505	-73.823107	381.942449	918.931660	-80.821032	427.982480	841.954593	-94.299440	427.646942	947.885293	-96.936324	464.800620	734.054344	-117.334893	416.502899	624.655544	-77.550430	391.060864	543.648544	-79.586821	356.120486	462.274428	-86.371384	431.827734	529.358559	-122.286250	293.076395	350.959974	-99.843206	340.029442	357.112918	-177.439528	244.160952	334.168151	-150.625660	498.814058	240.178083	-130.064430	389.004915	240.661680	-62.548479	327.730342	990.763384	-475.712441	391.751798	928.542942	-475.379218	428.814334	964.867918	-462.684538	443.639261	861.787977	-464.248715	473.338546	754.041558	-444.536377	364.594196	712.962862	-473.849695	293.115663	665.482411	-462.168284	219.928958	623.022962	-444.019031	325.722774	623.803740	-430.753232	113.895319	561.482131	-420.073682	141.622953	546.385840	-341.053852	62.559369	578.089495	-374.758732	201.117728	336.729172	-369.734983	125.694716	409.679126	-440.177486	-222.500606	893.369855	-248.834876	-11.962921	84.692534	-453.800770	-20.143436	80.761595	-53.709219	
752	3.7600	719.771572	1363.726569	-79.742009	757.463385	1308.720912	-410.775041	716.709506	1415.676294	-248.899119	695.686307	1250.447734	-238.001767	620.873721	1090.673163	17.254059	731.745307	865.643737	-57.578089	650.965799	1069.697072	-553.336867	733.526550	860.158126	-442.823212	169.532707	1232.551284	-260.750961	336.313309	1234.833026	-437.918958	325.383991	1212.436121	-106.974737	331.771144	1178.326891	-413.628354	353.248360	1165.513600	-140.578327	204.407232	1266.845041	-208.709114	198.432431	1277.060896	-313.723620	269.965042	1101.232537	-86.371640	271.874983	1102.655265	-461.775729	331.716808	983.672100	-72.580054	377.340060	914.732169	-79.490648	421.431650	836.563954	-92.934360	423.811346	942.468172	-95.455897	456.412486	727.482272	-115.833717	409.022791	617.543348	-76.131234	384.841257	536.199608	-78.355114	351.124300	454.180357	-85.394009	425.784472	522.618767	-121.133026	289.478034	342.807485	-99.906926	336.802440	348.590348	-176.740624	241.144470	327.708526	-150.329279	493.918041	228.563210	-130.139844	384.198479	231.022172	-62.572072	330.721548	994.007897	-475.816711	396.236217	933.415705	-476.726925	432.584971	970.584837	-463.712378	449.949540	867.814253	-466.025941	480.660919	760.247683	-446.930178	371.641022	720.348191	-475.345055	299.743167	673.627039	-463.053024	225.448296	632.651814	-445.920532	332.148020	631.503668	-431.988324	120.218158	570.783562	-419.799234	148.198420	555.863642	-340.921665	69.006867	587.806087	-374.489333	206.893903	346.178977	-369.592951	131.727512	419.252070	-439.934297	-222.464128	893.396113	-248.716575	-11.937732	84.686699	-453.870399	-20.119637	80.756481	-53.697780	
753	3.7650	720.936408	1363.259083	-80.906073	757.426530	1309.849158	-412.001682	717.606202	1415.938435	-249.382484	696.328066	1250.703094	-239.061078	623.855051	1089.862095	16.574931	732.256968	864.721361	-57.805553	650.496273	1069.506837	-553.725653	733.480553	860.357504	-442.646456	170.200581	1232.008648	-258.264899	336.138485	1235.904677	-436.186238	327.183651	1211.384100	-105.729035	332.096371	1178.722811	-411.761666	354.410372	1164.103868	-138.992915	205.081003	1266.165971	-205.788669	198.838639	1276.550415	-311.141260	269.172245	1099.672343	-84.717927	272.921038	1104.326105	-460.730699	328.734482	981.036725	-71.226196	372.569197	910.830296	-77.930945	414.584950	831.488354	-91.324602	419.675204	937.366112	-93.827259	447.398880	721.168054	-114.011281	400.682378	610.846925	-74.310294	377.889070	529.033213	-76.923538	345.576337	446.553948	-84.144855	419.215461	516.326852	-119.492696	285.614070	335.161171	-99.845902	333.285102	340.908896	-175.610742	237.840260	321.845782	-149.830564	488.416301	216.966616	-130.447294	378.836543	221.641578	-62.493038	333.280970	997.491033	-475.915120	400.300884	938.570741	-478.162008	435.870005	976.457882	-464.936548	455.960331	874.217951	-467.430208	487.976153	766.723348	-449.284163	378.890491	727.850851	-476.695730	306.723286	681.824584	-463.933497	232.264187	641.310734	-446.087390	339.002017	639.253693	-433.049008	127.279639	579.920843	-419.730654	155.517715	564.955300	-340.739144	76.059832	597.044568	-374.159079	213.222757	355.097443	-369.550234	138.299187	428.426608	-439.752719	-222.423496	893.395260	-248.647656	-11.915831	84.793033	-453.790001	-20.104986	80.752523	-53.678889	
754	3.7700	721.958091	1362.888686	-82.132173	757.334389	1311.199039	-413.250672	718.379693	1416.488404	-249.837987	696.930931	1251.339968	-240.207496	626.525330	1089.069970	15.719974	732.685209	863.819198	-58.022471	650.104110	1069.504596	-553.837768	733.494061	860.599525	-442.462637	170.992617	1231.542085	-255.670468	335.860905	1236.804280	-434.445969	329.265102	1210.446174	-104.413621	332.383823	1179.235986	-409.885786	355.540661	1162.909033	-137.354260	206.285356	1265.343322	-203.192551	199.245675	1276.506780	-308.405415	268.732528	1097.757810	-83.747626	273.658329	1106.222768	-459.695729	325.663531	978.758396	-69.643774	367.495138	907.465799	-76.205365	407.512186	826.835545	-89.253824	415.469898	932.459148	-92.029196	437.661110	715.083576	-111.903300	391.565197	604.664632	-72.161778	370.272587	522.428094	-75.143348	339.516027	439.452306	-82.648008	412.136284	510.464717	-117.447248	281.522690	328.006882	-99.399826	329.483488	334.023809	-174.112035	234.282731	316.763376	-149.003430	482.281578	205.743884	-130.786123	373.069864	212.709275	-62.565347	335.548150	1001.018160	-475.959008	404.001211	943.692971	-479.352023	438.793245	982.402119	-466.147417	461.203337	880.763189	-469.383645	495.371520	773.550603	-451.609944	386.446686	735.430928	-478.012840	314.077782	689.850489	-464.703947	239.990991	649.477981	-445.339556	346.591074	647.088084	-434.601988	135.000756	588.668117	-419.672769	163.271402	573.599352	-340.612495	83.635550	605.990492	-373.833915	220.135590	363.558210	-369.420087	145.409752	437.196378	-439.552941	-222.450550	893.429853	-248.625739	-11.923641	84.745189	-453.830170	-20.095215	80.784263	-53.662758	
